<mxfile host="Electron" agent="Mozilla/5.0 (Windows NT 10.0; Win64; x64) AppleWebKit/537.36 (KHTML, like Gecko) draw.io/26.0.4 Chrome/128.0.6613.186 Electron/32.2.5 Safari/537.36" version="26.0.4">
  <diagram name="第 1 页" id="4kWuyfJpJlCX6Q9UOwRM">
    <mxGraphModel dx="1050" dy="1021" grid="0" gridSize="10" guides="1" tooltips="1" connect="1" arrows="1" fold="1" page="0" pageScale="1" pageWidth="827" pageHeight="1169" math="0" shadow="0">
      <root>
        <mxCell id="0" />
        <mxCell id="1" parent="0" />
        <mxCell id="7Lya3NwNmBiTFmwFeWMo-1" value="&lt;font style=&quot;font-size: 14px;&quot;&gt;&lt;b&gt;Object Header（64 bits）&lt;/b&gt;&lt;/font&gt;" style="rounded=0;whiteSpace=wrap;html=1;fillColor=#f5f5f5;fontColor=#333333;strokeColor=#666666;" vertex="1" parent="1">
          <mxGeometry x="208" y="48" width="342" height="60" as="geometry" />
        </mxCell>
        <mxCell id="7Lya3NwNmBiTFmwFeWMo-2" value="&lt;font style=&quot;font-size: 14px;&quot;&gt;&lt;b&gt;Mark Word（32 bits）&lt;/b&gt;&lt;/font&gt;" style="rounded=0;whiteSpace=wrap;html=1;fillColor=#f5f5f5;fontColor=#333333;strokeColor=#666666;align=center;" vertex="1" parent="1">
          <mxGeometry x="208" y="108" width="171" height="60" as="geometry" />
        </mxCell>
        <mxCell id="7Lya3NwNmBiTFmwFeWMo-5" value="&lt;font style=&quot;&quot;&gt;&lt;span style=&quot;font-size: 14px;&quot;&gt;&lt;b&gt;Klass Pointer&lt;/b&gt;&lt;/span&gt;&lt;b style=&quot;font-size: 14px;&quot;&gt;（32 bits）&lt;/b&gt;&lt;/font&gt;" style="rounded=0;whiteSpace=wrap;html=1;fillColor=#f5f5f5;fontColor=#333333;strokeColor=#666666;align=center;" vertex="1" parent="1">
          <mxGeometry x="379" y="108" width="171" height="60" as="geometry" />
        </mxCell>
        <mxCell id="7Lya3NwNmBiTFmwFeWMo-7" value="&lt;font style=&quot;font-size: 14px;&quot;&gt;&lt;b&gt;普通对象&lt;/b&gt;&lt;/font&gt;" style="text;html=1;align=center;verticalAlign=middle;resizable=0;points=[];autosize=1;strokeColor=none;fillColor=none;" vertex="1" parent="1">
          <mxGeometry x="344" y="-9" width="70" height="30" as="geometry" />
        </mxCell>
        <mxCell id="7Lya3NwNmBiTFmwFeWMo-8" value="&lt;font style=&quot;font-size: 14px;&quot;&gt;&lt;b&gt;Object Header（96 bits）&lt;/b&gt;&lt;/font&gt;" style="rounded=0;whiteSpace=wrap;html=1;fillColor=#f5f5f5;fontColor=#333333;strokeColor=#666666;" vertex="1" parent="1">
          <mxGeometry x="122.5" y="287" width="513" height="60" as="geometry" />
        </mxCell>
        <mxCell id="7Lya3NwNmBiTFmwFeWMo-9" value="&lt;font style=&quot;font-size: 14px;&quot;&gt;&lt;b&gt;Mark Word（32 bits）&lt;/b&gt;&lt;/font&gt;" style="rounded=0;whiteSpace=wrap;html=1;fillColor=#f5f5f5;fontColor=#333333;strokeColor=#666666;align=center;" vertex="1" parent="1">
          <mxGeometry x="122.5" y="347" width="171" height="60" as="geometry" />
        </mxCell>
        <mxCell id="7Lya3NwNmBiTFmwFeWMo-10" value="&lt;font style=&quot;&quot;&gt;&lt;span style=&quot;font-size: 14px;&quot;&gt;&lt;b&gt;Klass Pointer&lt;/b&gt;&lt;/span&gt;&lt;b style=&quot;font-size: 14px;&quot;&gt;（32 bits）&lt;/b&gt;&lt;/font&gt;" style="rounded=0;whiteSpace=wrap;html=1;fillColor=#f5f5f5;fontColor=#333333;strokeColor=#666666;align=center;" vertex="1" parent="1">
          <mxGeometry x="293.5" y="347" width="171" height="60" as="geometry" />
        </mxCell>
        <mxCell id="7Lya3NwNmBiTFmwFeWMo-11" value="&lt;font style=&quot;font-size: 14px;&quot;&gt;&lt;b&gt;数组对象&lt;/b&gt;&lt;/font&gt;" style="text;html=1;align=center;verticalAlign=middle;resizable=0;points=[];autosize=1;strokeColor=none;fillColor=none;" vertex="1" parent="1">
          <mxGeometry x="342" y="232" width="74" height="29" as="geometry" />
        </mxCell>
        <mxCell id="7Lya3NwNmBiTFmwFeWMo-12" value="&lt;font style=&quot;&quot;&gt;&lt;span style=&quot;font-size: 14px;&quot;&gt;&lt;b&gt;Array Length&lt;/b&gt;&lt;/span&gt;&lt;b style=&quot;font-size: 14px;&quot;&gt;（32 bits）&lt;/b&gt;&lt;/font&gt;" style="rounded=0;whiteSpace=wrap;html=1;fillColor=#f5f5f5;fontColor=#333333;strokeColor=#666666;align=center;" vertex="1" parent="1">
          <mxGeometry x="464.5" y="347" width="171" height="60" as="geometry" />
        </mxCell>
      </root>
    </mxGraphModel>
  </diagram>
</mxfile>
